PathFileType  4	(X/Y/Z) C:\Users\antoi\Documents\MyRepositories\mobilecap\ResultsAnalysis
DataRate	CameraRate	NumFrames	NumMarkers	Units	OrigDataRate	OrigDataStartFrame	OrigNumFrames
100.0	100.0	4	51	mm	100.0	141	160
Frame#	Time	r_knee			r_shank_antsup			r_ankle			r_calc			r_5meta			r_toe			L_knee			L_shank_antsup			L_ankle			L_calc			L_5meta			L_toe			r_sh2			r_sh3			r_sh4			L_sh2			L_sh3			r_thigh1			r_thigh2			r_thigh3			r_thigh4			r_thigh5			L_thigh1			L_thigh2			L_thigh3			L_thigh4			r.ASIS			r.PSIS			L.ASIS			L.PSIS			C7			R_Shoulder			L_Shoulder			R_Sternum			L_Sternum			R_humerus			R_elbow_med			R_elbow_lat			R_forearm			R_wrist_radius			R_wrist_ulna			L_humerus			L_elbow_med			L_elbow_lat			L_forearm			L_wrist_radius			L_wrist_ulna			R_HJC			L_HJC			R_HJC_reg			L_HJC_reg			
		X1	Y1	Z1	X2	Y2	Z2	X3	Y3	Z3	X4	Y4	Z4	X5	Y5	Z5	X6	Y6	Z6	X7	Y7	Z7	X8	Y8	Z8	X9	Y9	Z9	X10	Y10	Z10	X11	Y11	Z11	X12	Y12	Z12	X13	Y13	Z13	X14	Y14	Z14	X15	Y15	Z15	X16	Y16	Z16	X17	Y17	Z17	X18	Y18	Z18	X19	Y19	Z19	X20	Y20	Z20	X21	Y21	Z21	X22	Y22	Z22	X23	Y23	Z23	X24	Y24	Z24	X25	Y25	Z25	X26	Y26	Z26	X27	Y27	Z27	X28	Y28	Z28	X29	Y29	Z29	X30	Y30	Z30	X31	Y31	Z31	X32	Y32	Z32	X33	Y33	Z33	X34	Y34	Z34	X35	Y35	Z35	X36	Y36	Z36	X37	Y37	Z37	X38	Y38	Z38	X39	Y39	Z39	X40	Y40	Z40	X41	Y41	Z41	X42	Y42	Z42	X43	Y43	Z43	X44	Y44	Z44	X45	Y45	Z45	X46	Y46	Z46	X47	Y47	Z47	X48	Y48	Z48	X49	Y49	Z49	X50	Y50	Z50	X51	Y51	Z51	

141	1.40000000	1445.85141	545.87694	-161.44613	1503.07786	428.87568	-176.31623	1461.03801	91.21837	-190.49273	1401.27333	59.71237	-245.19335	1597.07133	34.70717	-144.51845	1636.08862	67.67706	-211.76701	1112.22569	523.09280	-497.42346	1097.05656	408.54782	-483.17559	834.93682	158.58457	-471.73223	766.94673	157.46962	-417.73247	933.68794	33.71734	-497.26285	971.91675	49.27532	-430.63716	1522.07460	318.32254	-199.77157	1445.56614	407.73913	-128.91675	1471.03981	293.90941	-137.50727	1024.08252	450.57987	-519.40235	978.20623	338.40839	-531.20126	1442.21886	792.24752	-170.23759	1482.81228	689.34945	-187.56317	1466.89992	649.11366	-134.00992	1365.30220	747.64973	-99.32780	1413.23989	643.20896	-122.76702	1264.89726	744.12640	-509.84899	1236.32807	610.95013	-502.18946	1156.38072	765.12821	-533.01725	1126.95634	629.88102	-515.83295	1333.88109	1007.89706	-174.85466	1132.83119	1048.45322	-263.70145	1343.92293	991.42638	-442.08136	1135.93169	1049.67469	-360.66449	1270.38524	1540.52360	-368.94712	1318.45179	1486.11075	-168.99079	1340.58365	1443.61818	-528.69491	1388.82224	1440.13852	-323.45742	1388.73326	1430.37660	-370.14406	1284.50738	1327.61208	-74.38910	1159.01926	1128.84534	-99.86935	1176.90693	1156.68579	-22.35469	1238.51333	995.83292	12.06420	1245.22011	874.94559	37.24758	1213.23303	877.36593	64.26792	1350.53506	1270.78263	-593.41664	1270.05884	1058.01975	-573.52472	1316.81409	1075.83148	-636.78957	1429.70814	960.60124	-582.97359	1489.11227	856.53680	-587.27631	1467.97048	844.74102	-629.49835	1248.51482	931.01220	-208.09943	1254.66542	910.06403	-420.37436	1259.24376	920.36154	-216.24650	1264.89281	922.58823	-392.97392	
142	1.41000000	1458.52956	546.48517	-160.71797	1513.21360	427.51089	-176.00839	1462.56442	91.43300	-191.12101	1402.02626	60.38490	-245.52910	1597.33826	34.65347	-144.34068	1637.09049	65.46460	-212.25882	1130.74570	522.50121	-499.13740	1112.78465	408.24516	-485.94546	843.99034	165.57928	-473.19304	776.43562	168.63458	-418.35854	935.56303	34.40847	-497.36431	973.98536	48.69772	-430.71208	1529.16648	316.50351	-200.05441	1455.24490	407.58700	-128.57193	1477.92500	293.21785	-137.52871	1040.77697	452.59537	-520.63756	991.37151	341.94626	-532.94982	1456.19595	793.93344	-168.07182	1496.07480	690.68640	-185.92771	1480.38767	650.52365	-132.52622	1378.74129	749.01601	-97.78023	1426.91426	644.73339	-121.21634	1280.04108	745.04721	-510.32780	1253.69390	611.23307	-503.95868	1171.11695	764.56580	-532.17616	1143.91242	628.70478	-516.42674	1347.37843	1010.05947	-173.50260	1145.76714	1048.88287	-262.34283	1356.14671	992.56912	-440.75635	1148.49956	1050.13754	-359.37215	1282.10774	1542.43520	-362.44456	1330.43530	1485.20644	-163.22972	1353.04880	1447.82256	-523.36977	1400.49562	1441.48551	-318.16271	1400.60728	1432.42939	-364.90390	1297.81138	1325.25874	-70.82006	1173.81114	1125.97641	-98.49170	1191.26013	1153.17117	-20.56782	1253.82261	992.44435	12.59024	1261.12353	871.35036	36.89038	1228.95502	873.41206	63.66667	1360.71784	1274.73462	-589.53728	1275.10234	1063.69645	-571.02711	1322.24157	1080.82234	-634.25734	1431.71110	961.77925	-581.64560	1487.99168	856.01452	-587.05881	1466.84982	845.57200	-629.67243	1262.12768	932.53955	-206.43283	1267.78839	910.77792	-418.63964	1273.17402	921.30738	-214.60950	1278.14764	923.59170	-391.39225	
143	1.42000000	1469.89195	546.47833	-159.94018	1522.19483	425.88303	-175.49094	1463.82746	91.51924	-191.82072	1402.62577	60.79351	-245.91550	1597.53738	34.73088	-144.19179	1637.92539	63.68170	-212.65661	1150.33760	521.70233	-501.02085	1129.49429	407.88686	-488.83645	854.48275	173.02495	-474.57988	787.51708	180.61669	-418.87908	937.75063	35.77327	-497.45989	976.44103	48.36686	-430.76550	1535.45291	314.56627	-200.06442	1463.58824	407.10394	-128.38503	1483.68868	292.26899	-137.61827	1058.78750	454.58790	-521.99772	1005.81909	345.61168	-534.82301	1469.78514	794.78219	-165.84638	1508.71062	691.01084	-184.10702	1492.82188	651.02662	-131.01395	1391.61785	749.95682	-96.27368	1439.41546	645.59840	-119.74068	1295.73543	745.94097	-511.00520	1271.94562	611.47079	-506.09765	1186.36556	763.70498	-531.57874	1161.79487	627.19026	-517.40551	1360.96271	1012.37317	-172.06092	1158.78412	1049.30811	-260.89290	1368.34160	993.76770	-439.33790	1161.08653	1050.69740	-357.97967	1293.63349	1544.41033	-356.03877	1342.29075	1484.52716	-157.61148	1365.42444	1452.10917	-518.05340	1412.09459	1442.99905	-312.91682	1412.36530	1434.62069	-359.69092	1311.05713	1323.27224	-67.27731	1188.50155	1123.50528	-97.04412	1205.59970	1150.01050	-18.74737	1269.30311	989.46707	13.01868	1277.36922	868.20113	36.32531	1245.05091	869.81479	62.94102	1370.83678	1278.79848	-585.78295	1280.20063	1069.61762	-568.23063	1327.60876	1086.02470	-631.55085	1433.55468	963.19800	-580.42667	1486.49303	855.76423	-587.08310	1465.36161	846.66039	-629.97878	1275.82749	934.17152	-204.66015	1280.95125	911.54834	-416.79121	1287.29244	922.17161	-212.91732	1291.48013	924.69885	-389.75799	
144	1.43000000	1479.97220	545.98893	-159.14922	1530.17226	424.11922	-174.87386	1464.88012	91.52991	-192.52252	1403.10517	61.03771	-246.30637	1597.67644	34.82982	-144.06611	1638.62948	62.27538	-212.93823	1170.91835	520.57886	-503.04444	1147.30057	407.35555	-491.68987	866.42932	180.94635	-475.86471	800.24102	193.36268	-419.37085	940.32802	38.05548	-497.57839	979.36715	48.57216	-430.84654	1541.06591	312.61643	-199.88364	1470.84533	406.43210	-128.31099	1488.58936	291.20341	-137.72756	1078.16351	456.43848	-523.45585	1021.64155	349.25547	-536.74511	1482.87672	794.77718	-163.63175	1520.72346	690.39249	-182.17791	1504.12229	650.61704	-129.54764	1403.86363	750.45879	-94.85241	1450.68957	645.82218	-118.43116	1311.88001	746.74375	-511.86570	1291.00984	611.64394	-508.54010	1202.05455	762.47537	-531.25550	1180.51237	625.30502	-518.79009	1374.60295	1014.68597	-170.62197	1171.83036	1049.79711	-259.27245	1380.45434	994.98486	-437.92481	1173.62494	1051.32925	-356.43248	1304.96314	1546.40817	-349.74419	1354.00966	1484.03952	-152.15394	1377.62241	1456.45470	-512.77435	1423.62750	1444.66771	-307.75700	1423.99710	1436.93734	-354.55170	1324.20665	1321.61581	-63.74057	1203.06271	1121.36045	-95.47980	1219.92124	1147.14718	-16.86133	1284.94726	986.85554	13.37414	1294.01582	865.50198	35.55334	1261.51829	866.52448	62.10476	1380.82595	1282.95196	-582.11047	1285.37019	1075.72764	-565.14045	1332.94617	1091.39370	-628.66946	1435.28979	964.84024	-579.32241	1484.67629	855.78531	-587.35901	1463.53384	848.01194	-630.43719	1289.55826	935.82802	-202.83493	1294.00298	912.36880	-414.89129	1301.44813	923.06072	-211.17866	1304.71031	925.84626	-388.08059	
